<?xml version="1.0" encoding="utf-8"?>
<!-- Generator: Adobe Illustrator 27.1.1, SVG Export Plug-In . SVG Version: 6.00 Build 0)  -->
<svg version="1.1" id="box" xmlns="http://www.w3.org/2000/svg" xmlns:xlink="http://www.w3.org/1999/xlink" x="0px" y="0px"
	 viewBox="0 0 24 24" style="enable-background:new 0 0 24 24;" xml:space="preserve">
<style type="text/css">
	.st0{fill:#2EBF70;}
</style>
<path class="st0" d="M20.5,7.4C20.5,7.4,20.5,7.4,20.5,7.4l-0.1-0.2c0,0,0-0.1-0.1-0.1c0,0-0.1-0.1-0.1-0.1l-0.1-0.1L20,6.8
	l-7.5-4.6c-0.3-0.2-0.7-0.2-1.1,0L4,6.8L3.9,6.9L3.8,6.9c0,0-0.1,0.1-0.1,0.1c0,0,0,0.1-0.1,0.1L3.6,7.3c0,0,0,0,0,0.1
	c0,0.1,0,0.2,0,0.3v8.7c0,0.3,0.2,0.7,0.5,0.9l7.5,4.6l0,0c0,0,0.1,0,0.1,0.1c0,0,0.1,0,0.1,0c0.2,0.1,0.4,0.1,0.5,0
	c0,0,0.1,0,0.1,0c0.1,0,0.1,0,0.1-0.1l0,0l7.5-4.6c0.3-0.2,0.5-0.5,0.5-0.9V7.6C20.5,7.5,20.5,7.5,20.5,7.4z M11,19.2l-5.5-3.4V9.4
	l5.5,3.4V19.2z M12,11.1L6.4,7.6L12,4.2l5.6,3.5L12,11.1z M18.5,15.8L13,19.2v-6.4l5.5-3.4V15.8z"/>
</svg>
