<?xml version="1.0" encoding="utf-8"?>
<!-- Generator: Adobe Illustrator 27.1.1, SVG Export Plug-In . SVG Version: 6.00 Build 0)  -->
<svg version="1.1" id="budget" xmlns="http://www.w3.org/2000/svg" xmlns:xlink="http://www.w3.org/1999/xlink" x="0px" y="0px"
	 viewBox="0 0 24 24" style="enable-background:new 0 0 24 24;" xml:space="preserve">
<style type="text/css">
	.st0{fill:#FF9271;}
</style>
<path class="st0" d="M15.6,8.2c-3.7,0-6.8,3-6.8,6.8s3,6.8,6.8,6.8s6.8-3,6.8-6.8S19.3,8.2,15.6,8.2z M14.6,14.5h2
	c0.8,0,1.5,0.7,1.5,1.5s-0.7,1.5-1.5,1.5h-0.5v1c0,0.3-0.2,0.5-0.5,0.5s-0.5-0.2-0.5-0.5v-1h-1.5c-0.3,0-0.5-0.2-0.5-0.5
	s0.2-0.5,0.5-0.5h3c0.3,0,0.5-0.2,0.5-0.5s-0.2-0.5-0.5-0.5h-2c-0.8,0-1.5-0.7-1.5-1.5s0.7-1.5,1.5-1.5h0.5v-1
	c0-0.3,0.2-0.5,0.5-0.5s0.5,0.2,0.5,0.5v1h1.5c0.3,0,0.5,0.2,0.5,0.5s-0.2,0.5-0.5,0.5h-3c-0.3,0-0.5,0.2-0.5,0.5
	S14.3,14.5,14.6,14.5z M2.6,6V4c0-1.1,0.9-2,2-2h10c1.1,0,2,0.9,2,2v2c0,0.3-0.1,0.6-0.2,0.8c-0.3,0-0.6,0-0.8,0
	c-1.2,0-2.4,0.3-3.4,0.8H4.6c-0.4,0-0.8,0.1-1.1,0.2C3,7.3,2.6,6.7,2.6,6z M2.6,13v-2c0-1.1,0.9-2,2-2H10c-1.6,1.5-2.6,3.6-2.6,6
	H4.6C3.5,15,2.6,14.1,2.6,13z M11.3,22H4.6c-1.1,0-2-0.9-2-2v-2c0-0.7,0.4-1.3,0.9-1.7c0.3,0.1,0.7,0.2,1.1,0.2h2.9
	C7.9,18.8,9.3,20.8,11.3,22z"/>
</svg>
