<?xml version="1.0" encoding="utf-8"?>
<!-- Generator: Adobe Illustrator 27.1.1, SVG Export Plug-In . SVG Version: 6.00 Build 0)  -->
<svg version="1.1" id="cancel-order" xmlns="http://www.w3.org/2000/svg" xmlns:xlink="http://www.w3.org/1999/xlink" x="0px"
	 y="0px" viewBox="0 0 48 48" style="enable-background:new 0 0 48 48;" xml:space="preserve">
<style type="text/css">
	.st0{fill:#EA757E;}
</style>
<path class="st0" d="M19,4h6c1.1,0,2,0.9,2,2v2c0,1.1-0.9,2-2,2h-6c-1.1,0-2-0.9-2-2V6C17,4.9,17.9,4,19,4z"/>
<path class="st0" d="M34,6h-5v2c0,2.2-1.8,4-4,4h-6c-2.2,0-4-1.8-4-4V6h-5C8.3,6,7,7.3,7,9v30c0,1.7,1.3,3,3,3h15
	c-3.3-4.4-2.4-10.7,2-14c2.9-2.2,6.7-2.6,10-1.2V9C37,7.3,35.7,6,34,6z M21,34h-8c-0.6,0-1-0.4-1-1s0.4-1,1-1h8c0.6,0,1,0.4,1,1
	S21.6,34,21,34z M31,26H13c-0.6,0-1-0.4-1-1s0.4-1,1-1h18c0.6,0,1,0.4,1,1S31.6,26,31,26z M31,18H13c-0.6,0-1-0.4-1-1s0.4-1,1-1h18
	c0.6,0,1,0.4,1,1S31.6,18,31,18z"/>
<path class="st0" d="M33,28c-4.4,0-8,3.6-8,8s3.6,8,8,8s8-3.6,8-8S37.4,28,33,28z M35.8,37.4c0.4,0.4,0.4,1,0,1.4c0,0,0,0,0,0
	c-0.2,0.2-0.4,0.3-0.7,0.3c-0.3,0-0.5-0.1-0.7-0.3L33,37.4l-1.4,1.4c-0.2,0.2-0.4,0.3-0.7,0.3c-0.3,0-0.5-0.1-0.7-0.3
	c-0.4-0.4-0.4-1,0-1.4c0,0,0,0,0,0l1.4-1.4l-1.4-1.4c-0.4-0.4-0.4-1,0-1.4c0.4-0.4,1-0.4,1.4,0l1.4,1.4l1.4-1.4c0.4-0.4,1-0.4,1.4,0
	s0.4,1,0,1.4L34.4,36L35.8,37.4z"/>
</svg>
