<?xml version="1.0" encoding="utf-8"?>
<!-- Generator: Adobe Illustrator 27.1.1, SVG Export Plug-In . SVG Version: 6.00 Build 0)  -->
<svg version="1.1" id="income" xmlns="http://www.w3.org/2000/svg" xmlns:xlink="http://www.w3.org/1999/xlink" x="0px" y="0px"
	 viewBox="0 0 64 64" style="enable-background:new 0 0 64 64;" xml:space="preserve">
<style type="text/css">
	.st0{fill:#319189;}
</style>
<path class="st0" d="M23.2,2c-1.3,0-2.5,0.6-3.3,1.6c-0.8,1-1.1,2.3-0.6,3.7l1.7,5.5c1.3-0.5,2.7-0.8,4.1-0.8h12c0.1,0,0.2,0,0.3,0
	l1.4-4.7c0.4-1.4,0.1-2.8-0.6-3.7c-0.8-1-2-1.6-3.3-1.6L23.2,2z M52,12c-0.6,0-1,0.4-1,1c0,0,0,0.1,0,0.1l0.9,8.9H49
	c-0.6,0-1,0.5-1,1c0,0.2,0.1,0.4,0.2,0.6l6,8c0.3,0.4,1,0.5,1.4,0.2c0.1-0.1,0.1-0.1,0.2-0.2l6-8c0.3-0.4,0.2-1.1-0.2-1.4
	C61.4,22.1,61.2,22,61,22h-2.9l0.9-8.9c0.1-0.6-0.3-1-0.9-1.1c0,0-0.1,0-0.1,0L52,12z M3,13c-0.5,0-1,0.4-1,1v16c0,0.6,0.4,1,1,1h6
	c0.6,0,1-0.4,1-1c0,0,0,0,0,0V14c0-0.6-0.5-1-1-1H3z M13,14c-0.5,0-1,0.4-1,1v14c0,0.5,0.4,1,1,1l2,0c0.5,0,1-0.4,1-1V15
	c0-0.5-0.4-1-1-1L13,14z M18,27c1.9,0,2.3,1,5,1h12c1.1,0,2-0.9,2-2c0,0,0-0.1,0-0.1C36.7,26,36.3,26,36,26h-4c-0.6,0-1-0.4-1-1
	s0.4-1,1-1h4c1.1,0,2-0.9,2-1.9c0-0.2,0-0.4-0.1-0.6C37.3,21.8,36.7,22,36,22h-4c-0.6,0-1-0.4-1.1-0.9c0-0.6,0.4-1,0.9-1.1
	c0,0,0.1,0,0.1,0h4c1.1,0,2-0.9,2-2c0-0.1,0-0.1,0-0.2c-0.3,0.1-0.6,0.2-1,0.2h-5c-0.6,0-1-0.4-1.1-0.9c0-0.6,0.4-1,0.9-1.1
	c0,0,0.1,0,0.1,0h5c0.5,0,1-0.4,1-0.9c0,0,0,0,0,0c0-0.5-0.4-1-1-1c0,0,0,0,0,0H25c-1.8,0-2.9,0.4-4,0.9c-1.1,0.5-1.3,1.1-3,1.1
	L18,27z M7,27c0.6,0,1,0.4,1,1c0,0.6-0.4,1-1,1c-0.6,0-1-0.4-1-1C6,27.4,6.4,27,7,27z M38.1,28.5C37.3,29.5,36.2,30,35,30H23
	c-1.3,0-2.4-0.2-3.4-0.4c-0.2,0.5-0.5,1-0.8,1.5c-0.8,1.2-1.9,2.4-3.1,3.9c-2.3,2.9-4.7,6.7-4.7,12c0,4.7,1.6,8.6,4.7,11.1
	C18.8,60.7,23.3,62,29,62c5.7,0,10.1-1.3,13.3-3.9C45.4,55.6,47,51.7,47,47c0-5.3-2.4-9.1-4.7-12c-1.1-1.5-2.3-2.7-3.1-3.9
	C38.6,30.2,38.2,29.3,38.1,28.5L38.1,28.5z M51,33c-0.3,0-0.5,0.1-0.7,0.3l-1.4,1.4c-0.4,0.4-0.4,1,0,1.4s1,0.4,1.4,0l1.4-1.4
	c0.4-0.4,0.4-1,0-1.4C51.5,33.1,51.2,33,51,33z M59,33c-0.3,0-0.5,0.1-0.7,0.3c-0.4,0.4-0.4,1,0,1.4l1.4,1.4c0.4,0.4,1,0.3,1.4-0.1
	c0.3-0.4,0.3-0.9,0-1.3l-1.4-1.4C59.5,33.1,59.2,33,59,33z M55,34c-0.6,0-1,0.4-1,1v2c0,0.6,0.4,1,1,1s1-0.4,1-1c0,0,0,0,0,0v-2
	C56,34.4,55.6,34,55,34L55,34z M29,36c0.5,0,1,0.4,1,1v1h1c1.6,0,3,1.3,3,3c0,0.6-0.4,1-1,1c-0.6,0-1-0.4-1-1c0,0,0,0,0,0
	c0-0.5-0.4-1-1-1c0,0,0,0,0,0h-1v4h1c1.6,0,3,1.3,3,3v2c0,1.6-1.4,3-3,3h-1v1c0,0.6-0.5,1-1.1,0.9c-0.5,0-0.9-0.4-0.9-0.9v-1h-1
	c-1.7,0-3-1.3-3-3c0-0.6,0.4-1,1-1c0.6,0,1,0.4,1,1c0,0.6,0.4,1,1,1h1v-4h-1c-1.7,0-3-1.3-3-3v-2c0-1.6,1.4-3,3-3h1v-1
	C28,36.4,28.5,36,29,36z M27,40c-0.5,0-1,0.4-1,1c0,0,0,0,0,0v2c0,0.5,0.4,1,1,1c0,0,0,0,0,0h1v-4L27,40z M30,46v4h1
	c0.5,0,1-0.4,1-0.9c0,0,0,0,0,0v-2c0-0.5-0.4-1-1-1c0,0,0,0,0,0H30z"/>
</svg>
