<?xml version="1.0" encoding="utf-8"?>
<!-- Generator: Adobe Illustrator 27.1.1, SVG Export Plug-In . SVG Version: 6.00 Build 0)  -->
<svg version="1.1" id="return" xmlns="http://www.w3.org/2000/svg" xmlns:xlink="http://www.w3.org/1999/xlink" x="0px" y="0px"
	 viewBox="0 0 24 24" style="enable-background:new 0 0 24 24;" xml:space="preserve">
<style type="text/css">
	.st0{fill-rule:evenodd;clip-rule:evenodd;fill:#BB6894;}
</style>
<path class="st0" d="M4.9,2h13.2C19.7,2,21,3.2,21,4.8v6c-0.5-0.4-1-0.8-1.5-1.1c-2.6-1.4-5.8-1.1-8.1,0.9c-2.3,1.9-3.1,5-2.2,7.8
	c0.2,0.6,0.5,1.2,0.8,1.7H4.9C3.3,20,2,18.8,2,17.2V4.8C2,3.2,3.3,2,4.9,2z M7,8h9c0.6,0,1-0.4,1-1c0-0.6-0.4-1-1-1H7
	C6.4,6,6,6.4,6,7C6,7.6,6.4,8,7,8z"/>
<path class="st0" d="M19,10.5c0.8,0.4,1.5,1,2,1.7c0.8,1.1,1.3,2.4,1.2,3.8c0,2.6-1.6,5-4.1,5.9S12.9,22,11.2,20
	c-0.5-0.6-0.9-1.3-1.1-2c-0.6-1.9-0.3-4,0.8-5.6c1.2-1.6,3.1-2.6,5.1-2.6C17,9.8,18.1,10,19,10.5z M16.4,17H18v0c0.6,0,1-0.4,1-1
	s-0.4-1-1-1h-1.5l0.3-0.3c0.4-0.4,0.4-1,0-1.4s-1-0.4-1.4,0l-2,2c-0.3,0.3-0.4,0.6-0.2,1c0,0,0,0.1,0,0.1c0,0.1,0.1,0.2,0.2,0.3l2,2
	c0.2,0.2,0.4,0.3,0.7,0.3c0.3,0,0.5-0.1,0.7-0.3c0.2-0.2,0.3-0.4,0.3-0.7s-0.1-0.5-0.3-0.7L16.4,17z"/>
</svg>
