<?xml version="1.0" encoding="utf-8"?>
<!-- Generator: Adobe Illustrator 27.1.1, SVG Export Plug-In . SVG Version: 6.00 Build 0)  -->
<svg version="1.1" id="sales" xmlns="http://www.w3.org/2000/svg" xmlns:xlink="http://www.w3.org/1999/xlink" x="0px" y="0px"
	 viewBox="0 0 64 64" style="enable-background:new 0 0 64 64;" xml:space="preserve">
<style type="text/css">
	.st0{fill:#00AAFF;}
</style>
<path class="st0" d="M7.6,44.4C8,44.8,8.5,45,9,45s1-0.2,1.4-0.6l8.1-8.1l5.1,5.1c0.8,0.8,2,0.8,2.8,0L53,14.8V19c0,1.1,0.9,2,2,2
	s2-0.9,2-2v-9c0-1.1-0.9-2-2-2h-9c-1.1,0-2,0.9-2,2s0.9,2,2,2h4.2L25,37.2l-5.1-5.1c-0.8-0.8-2-0.8-2.8,0l-9.5,9.5
	C6.8,42.4,6.8,43.6,7.6,44.4z"/>
<path class="st0" d="M51,54V34c0-2.8-2.2-5-5-5s-5,2.2-5,5v20c0,2.8,2.2,5,5,5S51,56.8,51,54z M45,54V34c0-0.6,0.4-1,1-1s1,0.4,1,1
	v20c0,0.6-0.4,1-1,1S45,54.6,45,54z M39,54v-8c0-2.8-2.2-5-5-5s-5,2.2-5,5v8c0,2.8,2.2,5,5,5S39,56.8,39,54z M33,54v-8
	c0-0.6,0.4-1,1-1s1,0.4,1,1v8c0,0.6-0.4,1-1,1S33,54.6,33,54z M27,54v-3c0-2.8-2.2-5-5-5s-5,2.2-5,5v3c0,2.8,2.2,5,5,5
	S27,56.8,27,54z M21,54v-3c0-0.6,0.4-1,1-1s1,0.4,1,1v3c0,0.6-0.4,1-1,1S21,54.6,21,54z M17,18h11c1.1,0,2-0.9,2-2s-0.9-2-2-2H17
	c-1.1,0-2,0.9-2,2S15.9,18,17,18z M17,12h4c1.1,0,2-0.9,2-2s-0.9-2-2-2h-4c-1.1,0-2,0.9-2,2S15.9,12,17,12z M35.7,14.9
	c-0.1-0.1-0.1-0.2-0.2-0.3c-0.8-0.7-2.1-0.7-2.8,0c-0.1,0.1-0.2,0.2-0.2,0.3c-0.1,0.1-0.1,0.2-0.2,0.4c-0.1,0.1-0.1,0.2-0.1,0.4v0.8
	c0,0.1,0.1,0.2,0.1,0.4c0,0.1,0.1,0.2,0.2,0.3s0.1,0.2,0.2,0.3C33,17.8,33.5,18,34,18s1-0.2,1.4-0.6c0.1-0.1,0.2-0.2,0.2-0.3
	c0.1-0.1,0.1-0.2,0.2-0.3c0.1-0.1,0.1-0.2,0.1-0.4v-0.8c0-0.1-0.1-0.2-0.1-0.4C35.8,15.1,35.7,15,35.7,14.9z"/>
</svg>
