<?xml version="1.0" encoding="utf-8"?>
<!-- Generator: Adobe Illustrator 27.1.1, SVG Export Plug-In . SVG Version: 6.00 Build 0)  -->
<svg version="1.1" id="shopping-bag" xmlns="http://www.w3.org/2000/svg" xmlns:xlink="http://www.w3.org/1999/xlink" x="0px"
	 y="0px" viewBox="0 0 64 64" style="enable-background:new 0 0 64 64;" xml:space="preserve">
<style type="text/css">
	.st0{fill:#B44EF8;}
</style>
<path class="st0" d="M60,15h-8v-2c0-6.1-4.9-11-11-11S30,6.9,30,13v2h-8c-1.1,0-2,0.9-2,2v13H6c-1,0-1.9,0.8-2,1.9l-2,28
	c0,0.6,0.2,1.1,0.5,1.5S3.4,62,4,62h50c4.4,0,8-3.6,8-8V17C62,15.9,61.1,15,60,15z M34,13c0-3.9,3.1-7,7-7s7,3.1,7,7v2H34V13z
	 M7.9,34h22.3l1.7,24H6.1L7.9,34z M58,54c0,2.2-1.8,4-4,4H35.9L34,31.9c-0.1-1-0.9-1.9-2-1.9h-8V19h34V54z"/>
<path class="st0" d="M24,38c-1.1,0-2,0.9-2,2v1c0,1.7-1.3,3-3,3s-3-1.3-3-3v-1c0-1.1-0.9-2-2-2s-2,0.9-2,2v1c0,3.9,3.1,7,7,7
	s7-3.1,7-7v-1C26,38.9,25.1,38,24,38z"/>
</svg>
