<?xml version="1.0" encoding="utf-8"?>
<!-- Generator: Adobe Illustrator 27.1.1, SVG Export Plug-In . SVG Version: 6.00 Build 0)  -->
<svg version="1.1" id="wallet" xmlns="http://www.w3.org/2000/svg" xmlns:xlink="http://www.w3.org/1999/xlink" x="0px" y="0px"
	 viewBox="0 0 20 20" style="enable-background:new 0 0 20 20;" xml:space="preserve">
<style type="text/css">
	.st0{fill:#FDBA32;}
</style>
<path class="st0" d="M16,6H3.5V5.5l11-0.9v0.9H16V4c0-1.1-0.9-1.9-2-1.7L4,3.7C2.9,3.9,2,4.9,2,6v10c0,1.1,0.9,2,2,2h12
	c1.1,0,2-0.9,2-2V8C18,6.9,17.1,6,16,6z M14.5,13c-0.8,0-1.5-0.7-1.5-1.5c0-0.8,0.7-1.5,1.5-1.5l0,0c0.8,0,1.5,0.7,1.5,1.5
	C16,12.3,15.3,13,14.5,13z"/>
</svg>
